<?xml version="1.0" encoding="utf-8"?>
<!-- Generator: Adobe Illustrator 18.0.0, SVG Export Plug-In . SVG Version: 6.00 Build 0)  -->
<!DOCTYPE svg PUBLIC "-//W3C//DTD SVG 1.1//EN" "http://www.w3.org/Graphics/SVG/1.1/DTD/svg11.dtd">
<svg version="1.1" id="Ebene_5" xmlns="http://www.w3.org/2000/svg" xmlns:xlink="http://www.w3.org/1999/xlink" x="0px" y="0px"
	 viewBox="0 0 4364.3 1656" enable-background="new 0 0 4364.3 1656" xml:space="preserve">
<g>
	<path fill="#977761" d="M3964.7,1109c-7.2-19.3-56.5-135.6-74.4-147.3c-17.9-11.7-78.1-4.4-60.8,35.8
		c17.3,40.3,66.2,146.6,7.2,213.9c-59,67.2-82.4-19.3-82.4-19.3s-22.3-213.3-122.6-201.5c-100.3,11.9-40.9,51.2-27.8,65.1
		c13.1,13.9,72.7,112.8,0.2,169.7c-72.5,56.9,86,164.3,181.3,101.9S3991.5,1181.4,3964.7,1109z"/>
	<text transform="matrix(1 0 0 1 156.2065 1077.9954)" fill="#634E42" font-family="'BerlinSansFB-Bold'" font-size="1296">relaxo</text>
	<g>
		<path id="Body_x5F_01_2_" fill="#BF9B81" d="M3885.4,952.1c16.2,12.2-10,58.5-19.3,74.3c-9.3,15.8-38.4,94.5-29,126.1
			s31.5,57.7,47.2,70.3c5.7,4.5,24.6,12.6,13.2-30.9c-17.6-67.4,72.2-151.2,203.8-98.7c109.6,43.7,121.8,157.4,94.3,209.4
			c-5.8,11-30,33.1-51.6,38.2c-44.9,10.7-25.3,29.9-39.2,62.5c-29.5,69.4-85.1,108-137.5,129.7c-89.4,37.1-360.2,93.1-426.3,6
			s-49.8-264.1-38.6-349.9c4.4-33.7,25.1-108.9,29.6-120.1c11.1-27.2,35.8-74.8,57.7-86.9c13.5-7.5,56.6-19.1,39.5,45.7
			c-11.9,45-4.2,107.9-3.2,137.4c1,29.8-3.2,68.7,59,116.8c76.1,43.9,61.5-21.9,61.5-21.9s-31.4-132.1,0-190.3
			c19.5-36.2,59.7-110.5,82.5-115.2S3871.2,941.4,3885.4,952.1z"/>
		<path fill="#EBCDB7" d="M4123.2,1134.2c37.7,23.4,77.9,86.6,55.5,148.3c-25.1,69-191.7,33.2-202.7,25.6
			c-11-7.5-93.8-103.3-36.9-172.9C3982.7,1081.8,4084.1,1109.9,4123.2,1134.2z"/>
		<g>
			<path fill="#634E42" d="M4146.3,1205.8c23.6,21.4,32.4,43.1,36.2,63.4c5,26.4-14.1,57-70,56.2c-11.7-0.2,4.8-20.3,6.6-25.8
				c3.2-9.5-3.6-34.3-20.3-54.9C4076.5,1217.1,4113.8,1176.3,4146.3,1205.8z"/>
			<circle fill="#EBCDB7" cx="4140.9" cy="1252.8" r="22.7"/>
			<circle fill="#333333" cx="4140" cy="1250.9" r="17.2"/>
			<circle fill="#212121" cx="4138.9" cy="1248.7" r="10.8"/>
			
				<ellipse transform="matrix(-0.9023 0.431 -0.431 -0.9023 8403.9648 583.1078)" fill="#FFFFFF" cx="4135.9" cy="1243.6" rx="6.7" ry="4.9"/>
		</g>
		<g>
			<path fill="#634E42" d="M4027,1148.4c-26.1-18.4-49.2-22.1-69.8-21.4c-26.8,0.9-52.5,26.3-39.4,80.6c2.7,11.4,18.7-9.1,23.7-12.1
				c8.6-5.2,34.2-4.1,58.1,7.7C4031.4,1219,4062.9,1173.7,4027,1148.4z"/>
			<circle fill="#EBCDB7" cx="3982.3" cy="1164" r="22.7"/>
			<circle fill="#333333" cx="3984.4" cy="1164.5" r="17.2"/>
			<circle fill="#212121" cx="3986.8" cy="1165.2" r="10.8"/>
			
				<ellipse transform="matrix(-4.186793e-002 0.9991 -0.9991 -4.186793e-002 5325.7036 -2774.0029)" fill="#FFFFFF" cx="3992.9" cy="1166.6" rx="6.3" ry="4.7"/>
		</g>
		<path fill="#483F37" d="M3903,934.6c-12,6.1-18,10.2-17.7,17.5c0.4,7.3-14.6,5.9-12.8,0.6C3874.3,947.4,3881.9,925.6,3903,934.6z"
			/>
		<path fill="#483F37" d="M3882.7,930.2c-9.4,6.7-14,11-12.7,17.2c1.3,6.2-11.6,6.9-10.8,2.2
			C3859.9,944.9,3863.4,925.3,3882.7,930.2z"/>
		<path fill="#483F37" d="M3864.6,931.3c-7.5,6.7-11.1,10.8-9.4,16.1c1.7,5.2-9.4,7-9.2,2.9C3846.3,946.1,3847.6,928.8,3864.6,931.3
			z"/>
		<path fill="#483F37" d="M3641.2,964.5c-9.7,6-14.4,9.9-13.5,16.1c0.9,6.1-11.8,6-10.8,1.5C3617.9,977.5,3622.7,958.5,3641.2,964.5
			z"/>
		<path fill="#483F37" d="M3623.7,962.4c-7.4,6.4-10.9,10.4-9.4,15.5c1.5,5.1-9.3,6.7-9,2.7C3605.6,976.5,3607.1,959.7,3623.7,962.4
			z"/>
		<path fill="#483F37" d="M3608.5,964.6c-5.8,6.2-8.5,10-6.7,14.2c1.8,4.3-7.4,6.6-7.5,3.1C3594.3,978.5,3594,963.9,3608.5,964.6z"
			/>
		<path fill="#333333" d="M4073.9,1189.9c14.5,7.1,28.3,34.7-16.1,27C4034.8,1202.7,4040.7,1173.7,4073.9,1189.9z"/>
		<path fill="#333333" d="M4086.3,1263.8c-33.8,5.5-81.2-28.6-90.3-39.1c0,0-12.8-16.6-8.7-3.8c4.6,14.5,53.9,56.2,99.5,48.2
			C4093.4,1268,4093.4,1261.9,4086.3,1263.8z"/>
		<path fill="#FFFFFF" d="M4069.5,1190.1c4.7,2.1-23.2-6.5-22.9,8.1C4046.8,1212.9,4036.1,1175,4069.5,1190.1z"/>
	</g>
</g>
</svg>
